<svg version="1.1" xmlns="http://www.w3.org/2000/svg" xmlns:xlink="http://www.w3.org/1999/xlink" width="26.14473" height="11.72231" viewBox="0,0,26.14473,11.72231"><g transform="translate(-214.42474,-165.46579)"><g data-paper-data="{&quot;isPaintingLayer&quot;:true}" fill="#ffffff" fill-rule="nonzero" stroke="none" stroke-linecap="butt" stroke-linejoin="miter" stroke-miterlimit="10" stroke-dasharray="" stroke-dashoffset="0" style="mix-blend-mode: normal"><path d="M239.625,176.48912l0.03818,-0.07608c0.02664,-0.10143 0.01137,-0.23029 -0.05411,-0.39144c-1.05965,-2.16311 -5.09746,-3.51395 -7.2319,-4.26729c0,0 -0.23575,-0.08321 -0.15254,-0.31895c0.08321,-0.23575 0.31895,-0.15254 0.31895,-0.15254c2.27083,0.80147 6.17845,2.15678 7.4453,4.39181c0.20939,-0.87353 0.00621,-2.18713 -0.05983,-2.9099c0,0 -0.02263,-0.24897 0.22634,-0.27161c0.24897,-0.02263 0.27161,0.22634 0.27161,0.22634c0.0933,1.03147 0.35953,2.82781 -0.22098,3.72459l-0.00092,0.00185c-0.03706,1.55425 -3.96807,0.20586 -5.28374,0.0734l-0.29032,-0.04825c0,0 -0.2466,-0.0411 -0.2055,-0.2877c0.0411,-0.2466 0.2877,-0.2055 0.2877,-0.2055l0.27439,0.04586c1.10211,0.1118 4.14921,1.154 4.62513,0.49663c0.00637,-0.01947 0.01224,-0.03123 0.01224,-0.03123z" stroke-width="0.5"/><text transform="translate(214.52353,169.33368) scale(0.07599,0.07599)" font-size="40" xml:space="preserve" fill="#ffffff" fill-rule="nonzero" stroke="none" stroke-width="1" stroke-linecap="butt" stroke-linejoin="miter" stroke-miterlimit="10" stroke-dasharray="" stroke-dashoffset="0" font-family="Pixel" font-weight="normal" text-anchor="start" style="mix-blend-mode: normal"><tspan x="0" dy="0">Click to use!</tspan></text></g></g></svg>