<svg version="1.1" xmlns="http://www.w3.org/2000/svg" xmlns:xlink="http://www.w3.org/1999/xlink" width="17.06803" height="30.9" viewBox="0,0,17.06803,30.9"><g transform="translate(-351.46599,-160.31875)"><g data-paper-data="{&quot;isPaintingLayer&quot;:true}" fill-rule="nonzero" stroke="none" stroke-linecap="butt" stroke-linejoin="miter" stroke-miterlimit="10" stroke-dasharray="" stroke-dashoffset="0" style="mix-blend-mode: normal"><path d="M354.16128,181.10574c0,-2.70925 2.19628,-4.90554 4.90554,-4.90554c2.70925,0 4.90554,2.19628 4.90554,4.90554c0,2.70925 -2.19628,4.90554 -4.90554,4.90554c-2.70925,0 -4.90554,-2.19628 -4.90554,-4.90554z" fill-opacity="0.01176" fill="#ff0000" stroke-width="0"/><path d="M351.46599,180c0,-4.71321 3.82081,-8.53401 8.53401,-8.53401c4.71321,0 8.53401,3.82081 8.53401,8.53401c0,4.71321 -3.82081,8.53401 -8.53401,8.53401c-4.71321,0 -8.53401,-3.82081 -8.53401,-8.53401z" fill="#288875" stroke-width="0"/><text transform="translate(353.75,185.76875) scale(0.5,0.5)" font-size="40" xml:space="preserve" fill="#4affdb" fill-rule="nonzero" stroke="none" stroke-width="1" stroke-linecap="butt" stroke-linejoin="miter" stroke-miterlimit="10" stroke-dasharray="" stroke-dashoffset="0" font-family="Pixel" font-weight="normal" text-anchor="start" style="mix-blend-mode: normal"><tspan x="0" dy="0">?</tspan></text></g></g></svg>