<svg version="1.1" xmlns="http://www.w3.org/2000/svg" xmlns:xlink="http://www.w3.org/1999/xlink" width="2744.27928" height="857.012" viewBox="0,0,2744.27928,857.012"><defs><radialGradient cx="360" cy="180" r="141.89189" gradientUnits="userSpaceOnUse" id="color-1"><stop offset="0" stop-color="#000000" stop-opacity="0"/><stop offset="1" stop-color="#000000"/></radialGradient></defs><g transform="translate(1054.4895,248.73873)"><g data-paper-data="{&quot;isPaintingLayer&quot;:true}" fill-rule="nonzero" stroke-linecap="butt" stroke-linejoin="miter" stroke-miterlimit="10" stroke-dasharray="" stroke-dashoffset="0" style="mix-blend-mode: normal"><path d="M218.10811,180c0,-78.36473 63.52716,-141.89189 141.89189,-141.89189c78.36473,0 141.89189,63.52716 141.89189,141.89189c0,78.36473 -63.52716,141.89189 -141.89189,141.89189c-78.36473,0 -141.89189,-63.52716 -141.89189,-141.89189z" fill="url(#color-1)" stroke="#000000" stroke-width="25.5"/><path d="M-173.99399,417.08708v-463.96396h396.00602v463.96396z" fill="#000000" stroke="none" stroke-width="0"/><path d="M501.29129,430.6006v-474.47447h1188.49848v474.47447z" fill="#000000" stroke="none" stroke-width="0"/><path d="M-127.14713,35.7057v-284.44443h985.10509v284.44443z" fill="#000000" stroke="none" stroke-width="0"/><path d="M357.0324,369.29017l185.80133,-185.80133l150.76451,150.76451l-185.80133,185.80133z" fill="#000000" stroke="none" stroke-width="0"/><path d="M22.69306,24.44032l185.80134,-185.80133l150.7645,150.76451l-185.80133,185.80133z" fill="#000000" stroke="none" stroke-width="0"/><path d="M548.32923,178.70334l-185.80133,-185.80134l150.76451,-150.7645l185.80133,185.80133z" fill="#000000" stroke="none" stroke-width="0"/><path d="M221.49739,532.05168l-185.80133,-185.80134l150.76451,-150.76451l185.80133,185.80133z" fill="#000000" stroke="none" stroke-width="0"/><path d="M-122.14713,608.27327v-284.44443h985.10509v284.44443z" fill="#000000" stroke="none" stroke-width="0"/><path d="M-1054.4895,425.09008v-474.47447h1188.49848v474.47447z" fill="#000000" stroke="none" stroke-width="0"/></g></g></svg>