<svg version="1.1" xmlns="http://www.w3.org/2000/svg" xmlns:xlink="http://www.w3.org/1999/xlink" width="88.23652" height="50.93922" viewBox="0,0,88.23652,50.93922"><defs><radialGradient cx="343.37398" cy="179.97322" r="18.71285" gradientUnits="userSpaceOnUse" id="color-1"><stop offset="0" stop-color="#90bdde" stop-opacity="0.11373"/><stop offset="1" stop-color="#90bdde" stop-opacity="0"/></radialGradient><radialGradient cx="352.43908" cy="180.30853" r="18.71285" gradientUnits="userSpaceOnUse" id="color-2"><stop offset="0" stop-color="#90bdde" stop-opacity="0.11373"/><stop offset="1" stop-color="#90bdde" stop-opacity="0"/></radialGradient><radialGradient cx="373.4828" cy="180.44367" r="18.71285" gradientUnits="userSpaceOnUse" id="color-3"><stop offset="0" stop-color="#90bdde" stop-opacity="0.11373"/><stop offset="1" stop-color="#90bdde" stop-opacity="0"/></radialGradient><radialGradient cx="360.41205" cy="181.11934" r="18.71285" gradientUnits="userSpaceOnUse" id="color-4"><stop offset="0" stop-color="#90bdde" stop-opacity="0.11373"/><stop offset="1" stop-color="#90bdde" stop-opacity="0"/></radialGradient><radialGradient cx="366.7634" cy="180.84907" r="18.71285" gradientUnits="userSpaceOnUse" id="color-5"><stop offset="0" stop-color="#90bdde" stop-opacity="0.11373"/><stop offset="1" stop-color="#90bdde" stop-opacity="0"/></radialGradient><radialGradient cx="381.7634" cy="180.5788" r="18.71285" gradientUnits="userSpaceOnUse" id="color-6"><stop offset="0" stop-color="#90bdde" stop-opacity="0.11373"/><stop offset="1" stop-color="#90bdde" stop-opacity="0"/></radialGradient><radialGradient cx="337.70935" cy="179.76799" r="25.46961" gradientUnits="userSpaceOnUse" id="color-7"><stop offset="0" stop-color="#90bdde" stop-opacity="0.11373"/><stop offset="1" stop-color="#90bdde" stop-opacity="0"/></radialGradient></defs><g transform="translate(-312.23974,-154.29838)"><g data-paper-data="{&quot;isPaintingLayer&quot;:true}" fill-rule="nonzero" stroke-linecap="butt" stroke-linejoin="miter" stroke-miterlimit="10" stroke-dasharray="" stroke-dashoffset="0" style="mix-blend-mode: normal"><path d="M324.66112,179.97322c0,-10.33482 8.37803,-18.71286 18.71286,-18.71286c10.33482,0 18.71285,8.37803 18.71285,18.71286c0,10.33482 -8.37803,18.71285 -18.71285,18.71285c-10.33482,0 -18.71286,-8.37803 -18.71286,-18.71285z" fill="url(#color-1)" stroke="none" stroke-width="0"/><path d="M333.72622,180.30853c0,-10.33482 8.37803,-18.71286 18.71286,-18.71286c10.33482,0 18.71285,8.37803 18.71285,18.71286c0,10.33482 -8.37803,18.71285 -18.71285,18.71285c-10.33482,0 -18.71286,-8.37803 -18.71286,-18.71285z" fill="url(#color-2)" stroke="none" stroke-width="0"/><path d="M354.76994,180.44367c0,-10.33482 8.37803,-18.71286 18.71286,-18.71286c10.33482,0 18.71285,8.37803 18.71285,18.71286c0,10.33482 -8.37803,18.71285 -18.71285,18.71285c-10.33482,0 -18.71286,-8.37803 -18.71286,-18.71285z" fill="url(#color-3)" stroke="none" stroke-width="0"/><path d="M341.6992,181.11934c0,-10.33482 8.37803,-18.71285 18.71285,-18.71285c10.33483,0 18.71285,8.37803 18.71285,18.71285c0,10.33482 -8.37803,18.71286 -18.71285,18.71286c-10.33483,0 -18.71285,-8.37803 -18.71285,-18.71286z" fill="url(#color-4)" stroke="none" stroke-width="0"/><path d="M348.05055,180.84907c0,-10.33482 8.37803,-18.71285 18.71285,-18.71285c10.33483,0 18.71285,8.37803 18.71285,18.71285c0,10.33482 -8.37803,18.71286 -18.71285,18.71286c-10.33483,0 -18.71285,-8.37803 -18.71285,-18.71286z" fill="url(#color-5)" stroke="none" stroke-width="0"/><path d="M363.05055,180.5788c0,-10.33482 8.37803,-18.71285 18.71285,-18.71285c10.33483,0 18.71285,8.37803 18.71285,18.71285c0,10.33482 -8.37803,18.71286 -18.71285,18.71286c-10.33483,0 -18.71285,-8.37803 -18.71285,-18.71286z" fill="url(#color-6)" stroke="none" stroke-width="0"/><path d="M312.23974,179.76799c0,-14.06648 11.40313,-25.46961 25.46961,-25.46961c14.06648,0 25.46961,11.40313 25.46961,25.46961c0,14.06648 -11.40313,25.46961 -25.46961,25.46961c-14.06648,0 -25.46961,-11.40313 -25.46961,-25.46961z" fill="url(#color-7)" stroke="none" stroke-width="0"/><path d="M333.76837,185.5586v-11.45224l2.98489,0.24366l0.60916,8.34552z" fill="#8ebbdd" stroke="none" stroke-width="0"/><path d="M339.40312,185.28448l-4.93421,0.60916l3.22856,-2.86306l2.27713,-2.21553l2.77892,-3.75425l-1.04188,4.76694z" fill="#8ebbdd" stroke="none" stroke-width="0"/><path d="M337.60609,178.12683l-0.24366,-3.59405l5.05604,2.31481l-1.58382,2.01023z" fill="#8ebbdd" stroke="#000000" stroke-width="0"/><text transform="translate(344.77434,182.42889) scale(0.18003,0.18003)" font-size="40" xml:space="preserve" fill="#8ebbdd" fill-rule="nonzero" stroke="#8ebbdd" stroke-width="1" stroke-linecap="butt" stroke-linejoin="miter" stroke-miterlimit="10" stroke-dasharray="" stroke-dashoffset="0" font-family="Sans Serif" font-weight="normal" text-anchor="start" style="mix-blend-mode: normal"><tspan x="0" dy="0">Greedy Allay</tspan></text></g></g></svg>