<svg version="1.1" xmlns="http://www.w3.org/2000/svg" xmlns:xlink="http://www.w3.org/1999/xlink" width="51.88236" height="51.88236" viewBox="0,0,51.88236,51.88236"><defs><radialGradient cx="360" cy="180" r="25.94117" gradientUnits="userSpaceOnUse" id="color-1"><stop offset="0" stop-color="#8ebbde" stop-opacity="0.51765"/><stop offset="1" stop-color="#8ebbde" stop-opacity="0"/></radialGradient></defs><g transform="translate(-334.05882,-154.05882)"><g data-paper-data="{&quot;isPaintingLayer&quot;:true}" fill-rule="nonzero" stroke-width="0" stroke-linecap="butt" stroke-linejoin="miter" stroke-miterlimit="10" stroke-dasharray="" stroke-dashoffset="0" style="mix-blend-mode: normal"><path d="M351.72449,190.23918v-21.09551l5.49829,0.44883l1.1221,15.3728z" fill="#8ebbdd" stroke="none"/><path d="M362.10393,189.73424l-9.08902,1.1221l5.94714,-5.27388l4.19457,-4.0811l5.11889,-6.91549l-1.91919,8.7809z" fill="#8ebbdd" stroke="none"/><path d="M358.79373,176.54954l-0.44883,-6.62039l9.31344,4.26398l-2.91746,3.70293z" fill="#8ebbdd" stroke="#000000"/><path d="M351.72451,190.23918l4.38627,-5.49522l-0.53519,-13.90582l1.64723,-1.24563l1.1221,15.3728z" fill="#6e99b9" stroke="none"/><path d="M358.79375,176.54954l1.78477,-1.30593l5.53939,0.79803l-1.37704,1.85442z" fill="#6e99b9" stroke="#000000"/><path d="M362.02692,189.81125l-3.77455,0.35189l2.78928,-2.03897l2.73116,-4.31217l3.50143,-4.3738l-0.99492,4.00558z" fill="#6e99b9" stroke="none"/><path d="M334.05882,180c0,-14.32692 11.61427,-25.94118 25.94118,-25.94118c14.32691,0 25.94117,11.61426 25.94117,25.94118c0,14.32692 -11.61426,25.94118 -25.94117,25.94118c-14.32691,0 -25.94118,-11.61426 -25.94118,-25.94118z" fill="url(#color-1)" stroke="none"/></g></g></svg>