<svg version="1.1" xmlns="http://www.w3.org/2000/svg" xmlns:xlink="http://www.w3.org/1999/xlink" width="32.47059" height="32.47059" viewBox="0,0,32.47059,32.47059"><defs><radialGradient cx="348.44118" cy="180.76471" r="16.23529" gradientUnits="userSpaceOnUse" id="color-1"><stop offset="0" stop-color="#8ebbde" stop-opacity="0.51765"/><stop offset="1" stop-color="#8ebbde" stop-opacity="0"/></radialGradient></defs><g transform="translate(-332.20588,-164.52941)"><g data-paper-data="{&quot;isPaintingLayer&quot;:true}" fill-rule="nonzero" stroke-width="0" stroke-linecap="butt" stroke-linejoin="miter" stroke-miterlimit="10" stroke-dasharray="" stroke-dashoffset="0" style="mix-blend-mode: normal"><path d="M343.77768,186.66573v-14.06737l3.66649,0.2993l0.74826,10.25122z" fill="#8ebbdd" stroke="none"/><path d="M350.69913,186.32902l-6.06094,0.74826l3.9658,-3.51684l2.79711,-2.72145l3.41349,-4.61154l-1.2798,5.85547z" fill="#8ebbdd" stroke="none"/><path d="M348.49175,177.53691l-0.2993,-4.41475l6.21059,2.8434l-1.94548,2.46927z" fill="#8ebbdd" stroke="#000000"/><path d="M343.7777,186.66573l2.92495,-3.66444l-0.35689,-9.27298l1.09844,-0.83064l0.74826,10.25122z" fill="#6e99b9" stroke="none"/><path d="M348.49176,177.53691l1.19016,-0.87085l3.6939,0.53216l-0.91827,1.2366z" fill="#6e99b9" stroke="#000000"/><path d="M350.64777,186.38037l-2.51703,0.23465l1.86001,-1.35967l1.82125,-2.87553l2.3349,-2.91663l-0.66345,2.67109z" fill="#6e99b9" stroke="none"/><path d="M332.20588,180.76471c0,-8.9665 7.26879,-16.2353 16.2353,-16.2353c8.9665,0 16.23529,7.26879 16.23529,16.2353c0,8.9665 -7.26879,16.23529 -16.23529,16.23529c-8.9665,0 -16.2353,-7.26879 -16.2353,-16.23529z" fill="url(#color-1)" stroke="none"/></g></g></svg>