<svg version="1.1" xmlns="http://www.w3.org/2000/svg" xmlns:xlink="http://www.w3.org/1999/xlink" width="139.70235" height="139.70235" viewBox="0,0,139.70235,139.70235"><defs><radialGradient cx="360" cy="180" r="69.85118" gradientUnits="userSpaceOnUse" id="color-1"><stop offset="0" stop-color="#ffd200"/><stop offset="1" stop-color="#ffd200" stop-opacity="0"/></radialGradient><radialGradient cx="360" cy="180" r="34.80557" gradientUnits="userSpaceOnUse" id="color-2"><stop offset="0" stop-color="#ffe988"/><stop offset="1" stop-color="#ffe988" stop-opacity="0"/></radialGradient><radialGradient cx="290.86708" cy="120.98089" r="0.0025" gradientUnits="userSpaceOnUse" id="color-3"><stop offset="0" stop-color="#ffd200"/><stop offset="1" stop-color="#ffd200" stop-opacity="0"/></radialGradient></defs><g transform="translate(-290.14882,-110.14882)"><g data-paper-data="{&quot;isPaintingLayer&quot;:true}" fill-rule="nonzero" stroke="none" stroke-width="0" stroke-linecap="butt" stroke-linejoin="miter" stroke-miterlimit="10" stroke-dasharray="" stroke-dashoffset="0" style="mix-blend-mode: normal"><path d="M290.14882,180c0,-38.57774 31.27344,-69.85118 69.85118,-69.85118c38.57774,0 69.85118,31.27344 69.85118,69.85118c0,38.57774 -31.27344,69.85118 -69.85118,69.85118c-38.57774,0 -69.85118,-31.27344 -69.85118,-69.85118z" fill="url(#color-1)"/><path d="M343.20959,185.85487v-11.70974h33.58082v11.70974z" fill-opacity="0.01176" fill="#000000"/><path d="M320.08403,180c0,-22.04498 17.87099,-39.91597 39.91597,-39.91597c22.04498,0 39.91597,17.87099 39.91597,39.91597c0,22.04498 -17.87099,39.91597 -39.91597,39.91597c-22.04498,0 -39.91597,-17.87099 -39.91597,-39.91597z" fill="#ffd200"/><path d="M325.19443,180c0,-19.22259 15.58298,-34.80557 34.80557,-34.80557c19.22259,0 34.80557,15.58298 34.80557,34.80557c0,19.22259 -15.58298,34.80557 -34.80557,34.80557c-19.22259,0 -34.80557,-15.58298 -34.80557,-34.80557z" fill="url(#color-2)"/><ellipse cx="581.73416" cy="241.96177" transform="scale(0.5,0.5)" rx="0" ry="0" fill="url(#color-3)"/></g></g></svg>